<svg xmlns="http://www.w3.org/2000/svg" xmlns:xlink="http://www.w3.org/1999/xlink" version="1.1" id="Layer_1" x="0px" y="0px" style="enable-background:new 0 0 2182.68 2834.65;" xml:space="preserve" viewBox="941.84 1282.9 298.12 241.85">
<style type="text/css">
	.st0{fill:#FFFFFF;}
</style>
<g>
	<path class="st0" d="M1211.79,1524.6c-3.5,0-7.01-0.24-10.49,0.05c-8.95,0.74-14.32-3.25-18.44-11.22   c-25.77-49.88-51.9-99.56-77.91-149.31c-2.38-4.55-4.71-9.12-7.1-13.66c-1.57-2.97-3.1-5.85-7.25-5.83   c-4.12,0.01-5.71,2.8-7.27,5.81c-24.76,47.79-49.51,95.57-74.27,143.36c-3.81,7.35-7.75,14.65-11.41,22.07   c-2.9,5.88-7.59,8.62-13.94,8.67c-9.16,0.08-18.32,0.2-27.48-0.03c-11.93-0.29-17.81-10.2-12.32-20.83   c33.02-63.84,65.96-127.72,99.29-191.4c9.64-18.42,25.45-29.11,46.44-29.37c21.73-0.27,38.14,9.95,48.34,29.37   c20.02,38.12,39.92,76.31,59.88,114.47c13.2,25.24,26.18,50.59,39.68,75.66c6.54,12.15-0.91,23.44-13.77,22.26   C1219.81,1524.29,1215.79,1524.6,1211.79,1524.6z"/>
	<path class="st0" d="M1090.62,1524.56c-13.32,0-26.64,0.03-39.95-0.01c-8.32-0.03-11.03-4.54-7.24-12.02   c13.55-26.75,27.13-53.48,40.7-80.22c1.47-2.9,3.13-5.6,6.87-5.65c3.76-0.04,5.47,2.6,6.95,5.52   c13.54,26.75,27.11,53.49,40.63,80.25c3.92,7.76,1.2,12.15-7.5,12.16c-13.48,0.02-26.97,0.01-40.45,0.01   C1090.62,1524.59,1090.62,1524.58,1090.62,1524.56z"/>
</g>
</svg>