
<?xml version="1.0" encoding="utf-8"?>
<!-- Generator: Adobe Illustrator 26.3.1, SVG Export Plug-In . SVG Version: 6.00 Build 0)  -->
<svg version="1.1" id="Layer_1" xmlns="http://www.w3.org/2000/svg" xmlns:xlink="http://www.w3.org/1999/xlink" x="0px" y="0px"
	 viewBox="0 0 841.89 595.28" style="enable-background:new 0 0 841.89 595.28;" xml:space="preserve">
<g>
	<g>
		<g>
			<path d="M127.81,349.79v-73.74c0-0.7,0.56-1.26,1.26-1.26h12.67v4.91c2.28-1.98,4.81-3.52,7.59-4.62c2.78-1.1,5.8-1.66,9.08-1.66
				c7.23,0,13.18,2.91,17.87,8.73c4.68,5.82,7.02,13,7.02,21.52c0,8.45-2.36,15.6-7.08,21.46c-4.72,5.86-10.73,8.79-18.04,8.79
				c-3.88,0-7.1-0.59-9.65-1.77c-1.7-0.79-3.28-1.82-4.72-3.1c-0.81-0.71-2.07-0.14-2.07,0.94l0,19.8c0,0.7-0.56,1.26-1.26,1.26
				h-11.41C128.38,351.05,127.81,350.49,127.81,349.79z M154.99,321.14c4.79,0,8.37-1.86,10.73-5.59c1.98-3.12,2.97-7.08,2.97-11.87
				c0-4.95-0.95-8.91-2.85-11.87c-2.36-3.73-5.98-5.59-10.84-5.59c-4.8,0-8.37,1.87-10.73,5.59c-1.98,3.12-2.97,7.08-2.97,11.87
				c0,4.95,0.95,8.9,2.85,11.87C146.5,319.28,150.11,321.14,154.99,321.14z"/>
			<path d="M191.06,331.3v-55.25c0-0.7,0.56-1.26,1.26-1.26h11.41c0.7,0,1.26,0.56,1.26,1.26v6.73c1.75-3.2,4.13-5.56,7.14-7.08
				c2.69-1.36,5.88-2.11,9.58-2.26c0.71-0.03,1.33,0.57,1.33,1.28l0,11.64c0,0.68-0.56,1.21-1.23,1.23
				c-4.68,0.18-8.45,1.43-11.33,3.74c-3.65,2.97-5.48,7.38-5.48,13.24v26.71c0,0.7-0.56,1.26-1.26,1.26h-11.41
				C191.62,332.56,191.06,331.99,191.06,331.3z"/>
			<path d="M228.96,258.47v-0.23c0-3.85,3.12-6.96,6.96-6.96l0,0c3.85,0,6.96,3.12,6.96,6.96v0.23c0,3.85-3.12,6.96-6.96,6.96l0,0
				C232.08,265.43,228.96,262.31,228.96,258.47z M228.96,331.3v-55.25c0-0.7,0.56-1.26,1.26-1.26h11.41c0.7,0,1.26,0.56,1.26,1.26
				v55.25c0,0.7-0.56,1.26-1.26,1.26h-11.41C229.52,332.56,228.96,331.99,228.96,331.3z"/>
			<path d="M254.3,331.3v-55.25c0-0.7,0.56-1.26,1.26-1.26h11.41c0.7,0,1.26,0.56,1.26,1.26v4.45c1.98-2.36,4.41-4.13,7.31-5.31
				c2.89-1.18,5.79-1.77,8.68-1.77c6.77,0,11.78,1.66,15.01,4.97c3.23,3.31,4.85,8.2,4.85,14.67v38.24c0,0.7-0.56,1.26-1.26,1.26
				h-11.41c-0.7,0-1.26-0.56-1.26-1.26v-34.02c0-2.97-0.69-5.37-2.06-7.19c-1.6-2.13-4.11-3.2-7.53-3.2c-3.65,0-6.55,1.18-8.68,3.54
				c-2.44,2.67-3.65,6.55-3.65,11.64v29.22c0,0.7-0.56,1.26-1.26,1.26h-11.41C254.87,332.56,254.3,331.99,254.3,331.3z"/>
			<path d="M317.66,273.53v-17.92c0-0.7,0.56-1.26,1.26-1.26h11.55c0.62,0,1.11,0.5,1.11,1.11v18.06c0,0.7,0.56,1.26,1.26,1.26h9.92
				c0.7,0,1.26,0.56,1.26,1.26v7.52c0,0.7-0.56,1.26-1.26,1.26h-9.92c-0.7,0-1.26,0.56-1.26,1.26v27.97c0,2.59,0.4,4.41,1.2,5.48
				c0.8,1.07,2.49,1.6,5.08,1.6l4.77-0.53c0.75-0.08,1.4,0.5,1.4,1.25l0,8.97c0,0.6-0.42,1.13-1.01,1.25
				c-1.44,0.29-2.91,0.54-4.42,0.76c-1.87,0.27-3.75,0.4-5.65,0.4c-5.48,0-9.4-1.18-11.76-3.54c-2.36-2.36-3.54-5.82-3.54-10.39
				V286.1c0-0.7-0.56-1.26-1.26-1.26h-5.93c-0.7,0-1.26-0.56-1.26-1.26v-7.52c0-0.7,0.56-1.26,1.26-1.26h5.93
				C317.1,274.79,317.66,274.23,317.66,273.53z"/>
			<path d="M349.17,258.47v-0.23c0-3.85,3.12-6.96,6.96-6.96h0c3.85,0,6.96,3.12,6.96,6.96v0.23c0,3.85-3.12,6.96-6.96,6.96h0
				C352.29,265.43,349.17,262.31,349.17,258.47z M349.17,331.3v-55.25c0-0.7,0.56-1.26,1.26-1.26h11.41c0.7,0,1.26,0.56,1.26,1.26
				v55.25c0,0.7-0.56,1.26-1.26,1.26h-11.41C349.74,332.56,349.17,331.99,349.17,331.3z"/>
			<path d="M374.52,331.3v-55.25c0-0.7,0.56-1.26,1.26-1.26h11.41c0.7,0,1.26,0.56,1.26,1.26v4.45c1.98-2.36,4.41-4.13,7.31-5.31
				c2.89-1.18,5.79-1.77,8.68-1.77c6.77,0,11.78,1.66,15.01,4.97c3.23,3.31,4.85,8.2,4.85,14.67v38.24c0,0.7-0.56,1.26-1.26,1.26
				h-11.41c-0.7,0-1.26-0.56-1.26-1.26v-34.02c0-2.97-0.69-5.37-2.06-7.19c-1.6-2.13-4.11-3.2-7.53-3.2c-3.65,0-6.55,1.18-8.68,3.54
				c-2.44,2.67-3.65,6.55-3.65,11.64v29.22c0,0.7-0.56,1.26-1.26,1.26h-11.41C375.08,332.56,374.52,331.99,374.52,331.3z"/>
		</g>
	</g>
	<path d="M690.34,295.02c-0.54-0.67-1.18-1.07-1.94-1.2c-0.76-0.13-1.47-0.02-2.14,0.34c-0.67,0.36-1.05,1.03-1.14,2.01
		c-0.27,2.23-0.94,4.93-2.01,8.1c-1.07,3.17-2.43,6.24-4.08,9.23c-1.65,2.99-3.55,5.62-5.69,7.9c-2.14,2.27-4.46,3.64-6.96,4.08
		c-3.21,0.27-5.27-0.65-6.16-2.74c-0.89-2.1-1.2-4.86-0.94-8.3c0.27-3.43,0.87-7.2,1.81-11.31c0.94-4.1,1.63-8.1,2.07-11.98
		c0.45-3.88,0.4-7.32-0.13-10.3c-0.54-2.99-2.1-5.02-4.68-6.09c-2.14-0.89-4.37-1.47-6.69-1.74c-2.32-0.27-4.28-0.04-5.89,0.67
		c-1.79,0.71-3.55,2.16-5.29,4.35c-1.74,2.19-3.37,4.57-4.89,7.16l2.01-9.1c1.87-2.14,3.88-4.68,6.02-7.63
		c2.14-2.94,4.06-6.02,5.76-9.23c1.69-3.21,3.08-6.42,4.15-9.64c1.07-3.21,1.47-6.24,1.2-9.1c-0.18-1.87-0.6-3.66-1.27-5.35
		c-0.67-1.69-1.56-3.14-2.68-4.35c-1.12-1.2-2.41-2.14-3.88-2.81c-1.47-0.67-3.1-0.96-4.89-0.87c-1.25,0.09-2.39,0.74-3.41,1.94
		c-1.03,1.2-1.94,2.63-2.74,4.28c-0.8,1.65-1.45,3.32-1.94,5.02c-0.49,1.7-0.83,3.12-1,4.28c-1.16,6.87-2.45,14.14-3.88,21.81
		c-1.43,7.67-2.92,15.39-4.48,23.16c-1.24,6.16-2.46,12.21-3.67,18.2c-1.48,4.44-3.48,8.24-6.03,11.38
		c-4.28,5.26-10.04,8.48-17.26,9.64c-3.75,0.8-6.74,0.45-8.97-1.07c-2.23-1.52-3.84-3.72-4.82-6.62c-0.98-2.9-1.38-6.25-1.2-10.04
		c0.18-3.79,0.82-7.58,1.94-11.37c1.11-3.79,2.63-7.34,4.55-10.64c1.92-3.3,4.13-5.89,6.62-7.76c1.61-1.25,3.23-2.03,4.89-2.34
		c1.65-0.31,3.12-0.31,4.42,0c1.29,0.31,2.36,0.89,3.21,1.74c0.85,0.85,1.32,1.81,1.4,2.88c0.27,2.23,0.18,3.7-0.27,4.42
		c-0.45,0.71-0.72,1.12-0.8,1.2c-0.98,1.07-1.38,2.21-1.2,3.41c0.18,1.21,0.67,2.12,1.47,2.74c0.8,0.63,1.85,0.71,3.14,0.27
		c1.29-0.45,2.56-1.78,3.81-4.02c1.43-2.59,1.92-5.17,1.47-7.76c-0.45-2.59-1.61-4.86-3.48-6.82c-1.87-1.96-4.33-3.43-7.36-4.42
		c-3.03-0.98-6.33-1.16-9.9-0.54c-3.03,0.54-5.93,1.92-8.7,4.15c-2.77,2.23-5.31,4.89-7.63,7.96c-2.32,3.08-4.35,6.36-6.09,9.84
		c-1.74,3.48-3.06,6.74-3.95,9.77c-0.45,1.69-0.76,3.68-0.94,5.95c-0.18,2.28-0.13,4.57,0.13,6.89c0.05,0.43,0.14,0.85,0.2,1.27
		c-0.07,0.11-0.13,0.23-0.2,0.33c-1.79,2.77-3.66,4.93-5.62,6.49c-1.96,1.56-3.73,2.1-5.29,1.61c-1.56-0.49-2.83-2.19-3.81-5.09
		c-0.98-2.9-1.34-7.38-1.07-13.45c0.09-3.12,0.38-6.27,0.87-9.43c0.49-3.17,1.07-6.13,1.74-8.9c0.67-2.77,1.38-5.17,2.14-7.23
		c0.76-2.05,1.49-3.57,2.21-4.55c0.09-0.89-0.4-1.65-1.47-2.27c-1.07-0.62-2.32-1.05-3.75-1.27c-1.43-0.22-2.83-0.24-4.22-0.07
		c-1.38,0.18-2.3,0.58-2.74,1.2c-0.71-0.09-1.38,1.2-2.01,3.88c-0.62,2.68-1.32,6-2.07,9.97c-0.76,3.97-1.61,8.3-2.54,12.98
		c-0.94,4.68-1.99,8.97-3.15,12.85c-1.16,3.88-2.52,7.03-4.08,9.44c-1.56,2.41-3.33,3.39-5.29,2.95c-0.98-0.27-1.78-1.05-2.41-2.34
		c-0.63-1.29-1.09-2.88-1.41-4.75c-0.31-1.88-0.47-3.88-0.47-6.02c0-2.14,0.13-4.15,0.4-6.02c0.36-3.03,0.69-6.13,1-9.3
		c0.31-3.17,0.71-6.13,1.2-8.9c0.49-2.76,1.09-5.24,1.81-7.43c0.71-2.19,1.65-3.81,2.81-4.89c0.09-0.89-0.4-1.65-1.47-2.27
		c-1.07-0.62-2.32-1.05-3.75-1.27c-1.43-0.22-2.83-0.24-4.22-0.07c-1.38,0.18-2.3,0.58-2.74,1.2c-0.98,2.41-2.03,5.69-3.14,9.84
		c-1.12,4.15-2.03,8.59-2.74,13.32c-0.15,1.01-0.28,2.02-0.41,3.02c-1.63,2.61-3.5,4.83-5.61,6.61c-2.32,1.96-4.82,2.63-7.49,2.01
		c1.07-4.1,1.76-8.19,2.07-12.25c0.31-4.06,0.16-7.65-0.47-10.77c-1.34-8.12-6.02-13.43-14.05-15.93c-3.12-0.09-6.22,1.09-9.3,3.55
		s-5.89,5.62-8.43,9.5c-2.54,3.88-4.71,8.21-6.49,12.98c-1.78,4.77-2.97,9.41-3.55,13.92c-0.26,2.05-0.36,4.01-0.33,5.9
		c-0.1,0.18-0.17,0.38-0.27,0.56c-1.7,3.13-3.57,5.68-5.62,7.65c-2.05,1.96-4.1,2.73-6.16,2.28c-0.98-0.27-1.83-1.05-2.54-2.35
		c-0.72-1.29-1.25-2.88-1.61-4.76c-0.36-1.88-0.56-3.89-0.6-6.03c-0.05-2.15,0.07-4.2,0.33-6.17c0.18-1.7,0.51-3.91,1-6.63
		c0.49-2.73,1.05-5.74,1.67-9.05c0.62-3.31,1.34-6.75,2.14-10.33c0.8-3.58,1.65-7.06,2.54-10.46l12.58-1.21
		c0.98-0.09,1.69-0.45,2.14-1.07c0.45-0.63,0.65-1.28,0.6-1.95c-0.05-0.67-0.33-1.28-0.87-1.81c-0.54-0.54-1.25-0.76-2.14-0.67
		H452.8c1.16-4.1,2.16-7.38,3.01-9.84c0.85-2.45,1.72-4.08,2.61-4.88c0.09-0.89-0.4-1.65-1.47-2.28c-1.07-0.62-2.32-1.05-3.75-1.27
		c-1.43-0.22-2.81-0.25-4.15-0.07c-1.34,0.18-2.27,0.58-2.81,1.2c-0.8,1.61-1.67,3.77-2.61,6.49c-0.94,2.72-1.94,6.22-3.01,10.5
		c-1.52,0-3.01,0.02-4.48,0.07c-1.47,0.05-2.97,0.07-4.48,0.07c-0.53,0.09-0.78,0.55-0.74,1.36c0.04,0.82,0.27,1.68,0.67,2.59
		c0.4,0.91,0.91,1.77,1.54,2.59c0.62,0.82,1.2,1.27,1.74,1.36c0.62,0,1.23,0,1.81,0c0.58,0,1.18-0.04,1.81-0.13
		c-1.07,4.73-2.07,9.64-3.01,14.72c-0.94,5.09-1.67,9.99-2.21,14.73c-0.53,4.73-0.78,9.06-0.74,12.98c0.04,3.93,0.47,7.1,1.27,9.5
		c0.98,3.03,2.59,5.47,4.82,7.29c2.23,1.83,5.17,2.65,8.83,2.48c3.84-0.18,7.23-1.52,10.17-4.02c1.47-1.25,2.82-2.63,4.06-4.13
		c1,2.36,2.49,4.24,4.51,5.61c1.87,1.25,4.1,2.25,6.69,3.01c2.59,0.76,4.77,1.14,6.56,1.14c2.05,0,3.99-0.47,5.82-1.41
		c1.83-0.94,3.55-2.25,5.15-3.95c1.61-1.69,3.06-3.63,4.35-5.82c1.29-2.19,2.43-4.57,3.41-7.16c4.1,0.53,7.74-0.2,10.91-2.21
		c1.32-0.84,2.56-1.82,3.75-2.9c-0.13,4.66,0.34,8.78,1.41,12.33c0.27,0.98,0.89,2.01,1.87,3.08c0.98,1.07,2.18,2.07,3.61,3.01
		c1.43,0.94,2.97,1.72,4.62,2.34c1.65,0.62,3.28,0.98,4.88,1.07c3.57-0.18,6.47-1.38,8.7-3.61c2.23-2.23,4.01-4.95,5.35-8.16
		l0.67,2.01c0.98,3.03,2.59,5.47,4.82,7.29c2.23,1.83,5.17,2.65,8.83,2.48c3.84-0.18,7.23-1.52,10.17-4.01
		c1.5-1.27,2.88-2.69,4.14-4.23c0.5,0.98,1.08,1.86,1.75,2.62c1.61,1.7,3.35,3.03,5.22,4.01c1.87,0.98,3.79,1.67,5.75,2.07
		c1.96,0.4,3.95,0.58,5.96,0.54c2.01-0.05,3.95-0.2,5.82-0.47c8.21-0.98,14.99-4.1,20.34-9.37c0.21-0.21,0.41-0.44,0.62-0.66
		c-0.62,2.9-1.23,5.72-1.83,8.42c0,0.62,0.56,1.12,1.67,1.47c1.11,0.36,2.34,0.56,3.68,0.6c1.34,0.04,2.59-0.05,3.75-0.27
		c1.16-0.22,1.83-0.6,2.01-1.14c0.62-2.85,1.18-5.55,1.67-8.1c0.49-2.54,0.98-5.09,1.47-7.63c0.49-2.54,0.98-5.11,1.47-7.7
		c0.49-2.59,1-5.35,1.54-8.3c0.89-2.59,2.07-5.22,3.55-7.9c1.47-2.68,3.01-5.06,4.62-7.16c1.61-2.1,3.23-3.73,4.88-4.89
		c1.65-1.16,3.15-1.52,4.48-1.07c0.62,0.18,0.96,1.43,1,3.75c0.04,2.32-0.33,6.25-1.14,11.78c-0.45,2.77-1.03,5.6-1.74,8.5
		c-0.71,2.9-1.29,5.78-1.74,8.63c-0.45,2.86-0.69,5.56-0.74,8.1c-0.04,2.54,0.36,4.8,1.21,6.76c0.85,1.96,2.27,3.52,4.28,4.68
		c2.01,1.16,4.84,1.78,8.5,1.87c4.73,0.36,8.81-0.51,12.25-2.61c3.43-2.1,6.36-4.91,8.77-8.43c2.41-3.52,4.39-7.47,5.95-11.85
		c1.56-4.37,2.83-8.65,3.81-12.85C691.01,296.56,690.88,295.69,690.34,295.02z M642.5,250.79c0.49-2.5,0.87-4.48,1.14-5.96
		c0.27-1.47,0.49-2.54,0.67-3.21c0.18-0.67,0.36-1.27,0.54-1.81c0.27-0.62,0.56-0.89,0.87-0.8c0.31,0.09,0.6,0.45,0.87,1.07
		c0.27,0.63,0.42,1.47,0.47,2.54c0.04,1.07-0.11,2.23-0.47,3.48c-0.71,2.23-1.58,4.62-2.61,7.16c-1.03,2.54-2.16,5.06-3.41,7.56
		C641.36,256.63,642.01,253.29,642.5,250.79z M488.86,285.85c-1.29,2.94-2.16,6.13-2.61,9.57c-0.45,3.44-0.4,6.76,0.13,9.97
		c0.54,3.21,1.69,5.62,3.48,7.23c-0.72,1.96-1.52,3.88-2.41,5.76c-0.89,1.87-1.92,3.48-3.08,4.82c-1.16,1.34-2.41,2.32-3.75,2.94
		c-1.34,0.63-2.77,0.71-4.28,0.27c-1.61-0.45-2.79-1.85-3.55-4.22c-0.76-2.36-1.12-5.2-1.07-8.5c0.04-3.3,0.47-6.87,1.27-10.71
		c0.8-3.84,1.94-7.49,3.41-10.97c1.47-3.48,3.28-6.58,5.42-9.3c2.14-2.72,4.5-4.62,7.09-5.69c1.07-0.44,2.03-0.38,2.88,0.2
		c0.85,0.58,1.54,1.49,2.07,2.74C491.83,280.95,490.15,282.91,488.86,285.85z"/>
</g>
</svg>
