<svg xmlns="http://www.w3.org/2000/svg" xmlns:xlink="http://www.w3.org/1999/xlink" version="1.1" id="Layer_1" x="0px" y="0px" style="enable-background:new 0 0 2182.68 2834.65;" xml:space="preserve" viewBox="842.57 1370.29 496.39 56.9">
<style type="text/css">
	.st0{fill:#333070;}
	.st1{fill:#F0532C;}
</style>
<g>
	<path class="st0" d="M894.5,1372.82c-3.87-1.55-7.94-2.27-12.15-2.26c-9.63,0.04-19.27,0.24-28.89-0.09   c-4.37-0.15-7.92,0.79-10.89,3.91v50.36c0.54,0.3,1.07,0.63,1.63,0.91c7.15,3.56,11.88,0.79,11.89-6.94c0-1.97,0.11-3.95-0.03-5.92   c-0.21-3.19,1.2-4.4,4.4-4.34c6.97,0.14,13.95,0.06,20.92,0.04c4.51-0.02,8.93-0.51,13.14-2.26c7.45-3.11,11.03-8.4,11.06-16.45   C905.62,1381.53,901.95,1375.79,894.5,1372.82z M885.37,1397.24c-8.72,1.34-17.5,0.37-26.25,0.64c-0.07,0-0.25,0.01-0.49-0.04   c-1.07-0.22-1.8-1.27-2.29-2.35c-0.08-3.37-0.15-6.73-0.23-10.1c-0.12-0.65-0.23-1.81,0.43-2.7c0.85-1.15,2.5-1.25,3.29-1.24   c3.8,0.07,7.61,0.02,12.22,0.02c3.97,0.33,8.77-0.54,13.53,0.52c4.25,0.95,6.88,3.28,6.8,7.74   C892.31,1394.17,889.72,1396.57,885.37,1397.24z"/>
	<path class="st0" d="M1186.66,1399.07c0,7.4-0.2,14.8,0.07,22.19c0.19,5.15-2.79,5.36-6.7,5.38c-3.95,0.02-6.78-0.26-6.61-5.41   c0.3-8.87,0.1-17.75,0.06-26.63c-0.01-1.23,0.6-2.91-1.01-3.47c-1.58-0.55-2.23,1.07-3.04,2.04c-5.07,6.08-10.11,12.19-15.15,18.3   c-5.28,6.39-5.91,6.41-11.06,0.18c-5.04-6.1-10.05-12.24-15.12-18.32c-0.88-1.05-1.56-2.93-3.43-2.1   c-1.52,0.68-0.82,2.34-0.82,3.56c-0.06,8.88-0.2,17.76,0.04,26.63c0.12,4.36-1.97,5.35-5.79,5.2c-3.55-0.14-7.19,0.51-7.15-4.92   c0.11-15.45,0.06-30.91,0.03-46.36c-0.01-3.26,1.45-4.55,4.8-4.84c6.48-0.57,11.32,1.06,15.17,6.81   c4.29,6.41,9.82,11.99,14.42,18.22c2.94,3.99,4.8,3.21,7.43-0.2c5.54-7.18,11.34-14.16,17.05-21.21c2.62-3.23,11.6-4.97,15.02-3   c1.96,1.13,1.78,2.96,1.78,4.77C1186.66,1383.61,1186.66,1391.34,1186.66,1399.07z"/>
	<path class="st0" d="M1073.96,1426.56c-7.47,0-14.94,0.04-22.41-0.01c-5.81-0.04-7.99-2-8.03-7.59   c-0.09-13.64-0.1-27.29,0.01-40.93c0.04-5.3,2.29-7.42,7.7-7.44c14.78-0.06,29.55,0.06,44.33-0.07c4.19-0.04,5.4,1.74,5.44,5.67   c0.04,4.16-1.59,5.41-5.62,5.34c-11.29-0.19-22.58,0.1-33.87-0.15c-4.66-0.1-4.99,2.28-5.03,5.85c-0.03,3.52,0.59,5.55,4.86,5.44   c8.79-0.25,17.6,0.01,26.4-0.11c4.09-0.06,6.16,1.33,6.09,5.71c-0.07,4.31-2.07,5.71-6.2,5.64c-8.96-0.17-17.93,0.11-26.89-0.12   c-3.91-0.1-4.5,1.84-4.17,4.87c0.32,2.95-1.49,7.07,4.18,7.04c11.79-0.07,23.58,0.08,35.36-0.08c3.96-0.05,5.72,1.15,5.73,5.34   c0.01,4.33-1.69,5.81-5.95,5.68C1088.58,1426.39,1081.27,1426.56,1073.96,1426.56z"/>
	<path class="st0" d="M944.69,1426.56c-7.31,0-14.62,0.05-21.93-0.01c-5.95-0.05-8.18-2.2-8.21-8.01c-0.06-13.33-0.06-26.65,0-39.98   c0.02-5.82,2.25-7.96,8.21-7.98c14.62-0.04,29.25,0.08,43.87-0.07c4.18-0.04,5.52,1.63,5.54,5.58c0.01,4.06-1.55,5.51-5.64,5.44   c-11.13-0.19-22.27,0.1-33.4-0.15c-4.45-0.1-5.64,1.55-5.73,5.76c-0.1,4.56,1.75,5.63,5.92,5.52c8.63-0.23,17.28,0.05,25.92-0.12   c4.12-0.08,5.63,1.63,5.63,5.57c0,3.91-1.38,5.63-5.59,5.51c-8.8-0.24-17.62,0.19-26.42-0.17c-5.32-0.22-5.33,2.63-5.42,6.49   c-0.11,4.19,1.15,5.91,5.65,5.81c11.46-0.25,22.93,0.03,34.39-0.14c3.85-0.06,5.41,1.28,5.36,5.14c-0.04,3.66-0.75,6-5.22,5.88   C959.98,1426.41,952.34,1426.56,944.69,1426.56z"/>
	<path class="st0" d="M1338.79,1398.66c0,6.75,0.1,13.5-0.05,20.24c-0.06,2.62,1.33,6.44-2.18,7.35c-3.84,1-8.16,1.62-11.64-1.93   c-6.6-6.73-13.37-13.3-20.05-19.95c-4.45-4.43-8.86-8.91-13.31-13.34c-0.91-0.9-1.73-2.42-3.2-1.93c-1.9,0.63-1.1,2.53-1.11,3.88   c-0.07,9.38-0.24,18.77,0.05,28.14c0.15,4.91-2.23,5.72-6.42,5.7c-4.13-0.03-6.63-0.79-6.56-5.68c0.23-15.14,0.24-30.28,0.18-45.42   c-0.01-3.54,1.33-4.98,4.92-5.21c5.6-0.36,10.06,0.82,14.14,5.23c8.98,9.7,18.53,18.87,27.89,28.22c1,1,1.89,2.83,3.55,2.23   c1.73-0.62,1.05-2.57,1.06-3.96c0.05-8.72,0.21-17.45-0.05-26.17c-0.13-4.6,2.13-5.57,6.1-5.55c3.9,0.02,6.9,0.31,6.73,5.44   C1338.61,1383.51,1338.79,1391.09,1338.79,1398.66z"/>
	<path class="st0" d="M1258.07,1426.72c-3.56,0.76-5.78-1.13-7.6-4.72c-5.73-11.27-11.8-22.38-17.74-33.55   c-0.6-1.12-0.79-2.85-2.27-2.96c-1.89-0.14-2.07,1.87-2.71,3.08c-6.01,11.32-11.94,22.68-17.93,34.01   c-1.86,3.52-9.58,5.62-12.78,3.47c-1.83-1.23-1.87-2.95-0.91-4.78c7.89-14.97,15.48-30.1,23.8-44.83c4.58-8.1,16.43-7.87,21.01,0.3   c8.19,14.62,15.86,29.52,23.58,44.39C1266.59,1425.12,1264.77,1426.72,1258.07,1426.72z"/>
	<path class="st0" d="M983.64,1396.95c0-6.73-0.03-13.47,0.01-20.2c0.03-6.01,0.26-6.19,6.64-6.18c6.03,0.01,6.4,0.36,6.41,6.5   c0.02,10.85,0.22,21.7-0.1,32.54c-0.14,4.7,1.56,5.92,6.05,5.78c9.45-0.29,18.93,0.06,28.38-0.15c4.3-0.1,5.34,1.72,5.29,5.63   c-0.05,3.75-0.78,5.82-5.21,5.76c-13.28-0.19-26.56-0.03-39.84-0.09c-5.44-0.03-7.81-2.37-7.91-7.89   c-0.12-7.23-0.03-14.46-0.03-21.7C983.45,1396.95,983.55,1396.95,983.64,1396.95z"/>
	<path class="st1" d="M1230.07,1426.57c-1.66,0-3.31,0-4.97,0c-7.37,0-7.47-0.16-4.23-6.47c2.32-4.52,4.67-9.04,6.96-13.58   c1.53-3.03,3.11-3.91,4.98-0.26c2.77,5.4,5.57,10.79,8.35,16.19c1.46,2.83,0.82,4.36-2.64,4.28c-2.81-0.07-5.63-0.01-8.45-0.01   C1230.07,1426.67,1230.07,1426.62,1230.07,1426.57z"/>
</g>
</svg>