<?xml version="1.0" standalone="no"?>
<!DOCTYPE svg PUBLIC "-//W3C//DTD SVG 20010904//EN"
 "http://www.w3.org/TR/2001/REC-SVG-20010904/DTD/svg10.dtd">
<svg version="1.0" xmlns="http://www.w3.org/2000/svg"
 width="512.000000pt" height="512.000000pt" viewBox="0 0 512.000000 512.000000"
 preserveAspectRatio="xMidYMid meet">

<g transform="translate(0.000000,512.000000) scale(0.100000,-0.100000)"
fill="#f7b866" stroke="none">
<path d="M2315 5109 c-800 -83 -1501 -518 -1927 -1196 -604 -960 -491 -2229
272 -3065 423 -463 951 -740 1585 -830 118 -17 511 -16 635 0 579 80 1097 337
1491 739 130 132 157 163 243 277 256 341 423 757 488 1211 17 118 17 512 0
630 -43 303 -122 561 -247 814 -134 268 -270 459 -483 674 -395 400 -889 649
-1457 733 -123 18 -478 26 -600 13z m447 -1060 c583 -63 1093 -451 1277 -972
55 -157 74 -272 74 -452 0 -180 -19 -295 -74 -452 -134 -379 -453 -705 -844
-862 -316 -127 -642 -153 -976 -80 l-97 22 -253 -145 -254 -145 -3 268 -2 269
-138 138 c-227 226 -340 430 -404 725 -30 143 -30 379 0 524 61 285 180 503
391 713 67 67 155 142 208 178 323 219 703 313 1095 271z"/>
<path d="M2080 2664 c-463 -491 -488 -519 -460 -504 14 7 176 95 360 196 184
100 342 186 350 189 11 4 75 -57 210 -200 l194 -205 42 42 c23 24 184 196 359
383 175 187 341 364 369 394 l51 54 -95 -51 c-52 -28 -219 -119 -370 -202
l-275 -151 -200 205 -200 205 -335 -355z"/>
</g>
</svg>
