<?xml version="1.0" standalone="no"?>
<!DOCTYPE svg PUBLIC "-//W3C//DTD SVG 20010904//EN"
 "http://www.w3.org/TR/2001/REC-SVG-20010904/DTD/svg10.dtd">
<svg version="1.0" xmlns="http://www.w3.org/2000/svg"
 width="512.000000pt" height="512.000000pt" viewBox="0 0 512.000000 512.000000"
 preserveAspectRatio="xMidYMid meet">

<g transform="translate(0.000000,512.000000) scale(0.100000,-0.100000)"
fill="#29266D" stroke="none">
<path d="M2321 5110 c-497 -48 -990 -251 -1376 -565 -114 -92 -294 -274 -384
-387 -229 -287 -417 -675 -495 -1023 -49 -218 -60 -325 -60 -575 0 -250 11
-357 60 -575 79 -355 272 -749 509 -1040 92 -114 274 -294 387 -384 287 -229
675 -417 1023 -495 218 -49 325 -60 575 -60 250 0 357 11 575 60 261 58 603
204 828 353 389 259 688 599 893 1016 125 255 196 484 241 775 24 161 24 539
0 700 -45 291 -116 520 -241 775 -134 272 -283 480 -498 692 -211 209 -404
346 -673 478 -252 124 -486 197 -765 240 -126 19 -468 27 -599 15z m-365
-1136 c59 -44 67 -64 76 -201 15 -246 59 -442 144 -639 51 -118 57 -169 30
-222 -21 -41 -52 -62 -190 -126 -64 -30 -116 -58 -116 -61 0 -4 33 -57 74
-119 133 -198 288 -368 469 -513 73 -59 269 -193 282 -193 3 0 33 57 66 127
64 136 78 157 122 179 51 27 104 20 221 -30 198 -85 393 -129 639 -144 137 -9
157 -17 201 -76 20 -27 21 -40 21 -381 0 -341 -1 -354 -21 -381 -48 -65 -61
-69 -227 -68 -464 4 -979 166 -1392 438 -732 482 -1186 1272 -1231 2142 -8
154 -3 192 33 235 49 58 55 59 430 56 327 -2 343 -3 369 -23z"/>
</g>
</svg>
